<svg width="22" height="22" viewBox="0 0 22 22" fill="none" xmlns="http://www.w3.org/2000/svg">
<path d="M20.849 19.1509L16.242 14.544C17.327 13.106 17.978 11.3239 17.978 9.38795C17.978 4.65195 14.124 0.79895 9.389 0.79895C4.653 0.79995 0.800003 4.65295 0.800003 9.38895C0.800003 14.124 4.653 17.978 9.389 17.978C11.324 17.978 13.107 17.327 14.545 16.242L19.152 20.849C19.386 21.083 19.693 21.2 20 21.2C20.307 21.2 20.614 21.0829 20.849 20.8479C21.317 20.3799 21.317 19.6199 20.849 19.1509ZM3.2 9.38895C3.2 5.97595 5.976 3.19995 9.389 3.19995C12.801 3.19995 15.577 5.97595 15.577 9.38795C15.577 12.7999 12.801 15.576 9.389 15.576C5.976 15.577 3.2 12.801 3.2 9.38895V9.38895Z" fill="#C5C6CA"/>
</svg>
