<svg width="28" height="30" viewBox="0 0 28 30" fill="none" xmlns="http://www.w3.org/2000/svg">
<path fill-rule="evenodd" clip-rule="evenodd" d="M20.9232 7.84098C20.9233 8.75164 20.7441 9.65341 20.3956 10.4948C20.0472 11.3362 19.5365 12.1007 18.8926 12.7447C18.2488 13.3887 17.4844 13.8996 16.6431 14.2481C15.8018 14.5967 14.9 14.7762 13.9894 14.7763C12.1502 14.7765 10.3863 14.046 9.08567 12.7457C7.78505 11.4453 7.05426 9.68156 7.05407 7.8424C7.05398 6.93173 7.23326 6.02997 7.58166 5.18859C7.93007 4.34721 8.44079 3.5827 9.08466 2.9387C10.385 1.63808 12.1488 0.907292 13.9879 0.907105C15.8271 0.906917 17.591 1.63734 18.8916 2.9377C20.1923 4.23805 20.923 6.00181 20.9232 7.84098M13.9887 16.8977C4.00257 16.8977 0.118073 23.2529 0.118073 26.2095C0.118073 29.1646 8.38715 29.9523 13.9887 29.9523C19.5902 29.9523 27.8592 29.1646 27.8592 26.2095C27.8592 23.2529 23.9747 16.8977 13.9887 16.8977Z" fill="#DBDBDB"/>
</svg>
