<svg width="21" height="22" viewBox="0 0 21 22" fill="none" xmlns="http://www.w3.org/2000/svg">
<path fill-rule="evenodd" clip-rule="evenodd" d="M15.387 5.64401C15.3871 6.28683 15.2605 6.92337 15.0146 7.51729C14.7686 8.1112 14.4081 8.65086 13.9536 9.10545C13.4991 9.56003 12.9595 9.92065 12.3657 10.1667C11.7718 10.4128 11.1353 10.5394 10.4925 10.5395C9.19425 10.5396 7.94914 10.024 7.03105 9.10615C6.11297 8.18826 5.59712 6.94325 5.59699 5.64501C5.59692 5.00219 5.72347 4.36565 5.96941 3.77174C6.21534 3.17782 6.57585 2.63817 7.03035 2.18358C7.94824 1.26549 9.19325 0.749644 10.4915 0.749512C11.7897 0.749379 13.0348 1.26497 13.9529 2.18287C14.871 3.10077 15.3869 4.34578 15.387 5.64401ZM10.492 12.037C3.44299 12.037 0.700989 16.523 0.700989 18.61C0.700989 20.696 6.53799 21.252 10.492 21.252C14.446 21.252 20.283 20.696 20.283 18.61C20.283 16.523 17.541 12.037 10.492 12.037Z" fill="#DDDDDD"/>
</svg>
