<svg width="21" height="21" viewBox="0 0 21 21" fill="none" xmlns="http://www.w3.org/2000/svg">
<path fill-rule="evenodd" clip-rule="evenodd" d="M19.569 7.20407L11.122 0.48707C10.9453 0.346227 10.726 0.269531 10.5 0.269531C10.274 0.269531 10.0547 0.346227 9.878 0.48707L1.43 7.20407C1.19455 7.39135 1.00438 7.62933 0.873663 7.90029C0.742942 8.17126 0.675035 8.46822 0.674999 8.76907V18.1871C0.674999 18.8236 0.927856 19.434 1.37794 19.8841C1.82803 20.3342 2.43848 20.5871 3.075 20.5871H8.5V15.8351C8.5 15.5699 8.60536 15.3155 8.79289 15.128C8.98043 14.9404 9.23478 14.8351 9.5 14.8351H11.5C11.7652 14.8351 12.0196 14.9404 12.2071 15.128C12.3946 15.3155 12.5 15.5699 12.5 15.8351V20.5871H17.924C18.5605 20.5871 19.171 20.3342 19.6211 19.8841C20.0711 19.434 20.324 18.8236 20.324 18.1871V8.77007C20.324 8.46922 20.2561 8.17226 20.1253 7.90129C19.9946 7.63033 19.8044 7.39235 19.569 7.20507" fill="#DDDDDD"/>
</svg>
